<svg width="84" height="40" fill="none" xmlns="http://www.w3.org/2000/svg"><path d="M52.9987 11.3554v21.27c0 1.1362.2301 2.0582.6921 2.7678.4607.71 1.1882 1.0642 2.1821 1.0642.7092 0 1.5699-.2659 2.5812-.7982 1.011-.5324 2.1022-1.4014 3.273-2.608V18.647c0-1.1712-.1423-2.0932-.4258-2.7678-.2846-.6735-.7807-1.1883-1.4903-1.5437v-.1594c.78 0 1.5702-.1237 2.3685-.3725.7983-.2481 1.5517-.5856 2.262-1.0114.7093-.4258 1.312-.9048 1.8096-1.4368h.1595v.0377c.0004.8046.007 14.2425 0 16.1131-.0179 4.889 1.668 10.856 9.3148 11.2331 1.4527.0715 2.6345-.4524 3.5393-1.3572.9048-.9049 1.3568-2.1198 1.3568-3.646 0-1.0993-.3017-1.9957-.9048-2.6875-.6035-.6917-1.3755-1.2773-2.3149-1.7564-.9406-.479-1.9253-.9314-2.9537-1.3572-1.1004-.4966-2.1475-1.0646-3.1402-1.7031-.9939-.6389-1.8097-1.4547-2.4481-2.4486-.6389-.9927-.9581-2.27-.9581-3.832 0-1.5608.3991-2.9713 1.1974-4.2311.7983-1.2591 1.907-2.253 3.3263-2.9805 1.4188-.7268 3.0511-1.0909 4.8965-1.0909.8865 0 1.7647.062 2.6345.1861.8691.1248 1.7115.3112 2.528.5589l-1.6502 6.44h-.1594c-.3193-1.8804-.9581-3.3347-1.9158-4.3643-.9581-1.0285-2.0409-1.5434-3.2467-1.5434-1.3489 0-2.3948.4791-3.1402 1.4368-.745.9581-1.1175 2.041-1.1175 3.2468 0 1.0643.2926 1.9425.8782 2.6346.5855.6918 1.3477 1.2774 2.2882 1.7564.9398.4791 1.9246.9497 2.9542 1.4101 1.0992.4616 2.1463 1.003 3.1402 1.6236.9927.621 1.8176 1.4193 2.4747 2.3949.6559.9764.9843 2.2271.9843 3.7525 0 1.8808-.4349 3.4686-1.3036 4.7631-.8701 1.296-2.8282 3.9724-7.0588 4.0185-3.3601.0369-6.0403-1.7347-9.0059-1.7347-2.2662 0-3.7969 1.014-4.7192 1.6886h-.1598v-3.566c0-.4966.0084-.9931.0266-1.4904.0175-.4962.0442-.9049.0799-1.2241h-.0532c-.745.9939-1.5966 1.9691-2.5546 2.9272-.9581.9581-1.9782 1.7564-3.0603 2.3952-1.0829.6385-2.138.9581-3.1668.9581-1.49 0-2.6342-.5243-3.4328-1.5703-.2047-.2682-.3831-.5557-.5353-.8625-.4942.6887-1.1656 1.2754-2.0145 1.7605-.8694.4962-1.7293.745-2.5813.745-1.0292 0-1.8982-.3459-2.6075-1.038-.7103-.6917-1.0646-1.7648-1.0646-3.2198v-.479h-.0532c-1.1358 1.3838-2.3774 2.5105-3.7254 3.3796-1.3489.869-2.6969 1.3039-4.045 1.3039-1.3835 0-2.5904-.5505-3.6189-1.6498-1.0296-1.0997-1.5436-2.5364-1.5436-4.3111 0-1.4904.479-2.9447 1.4371-4.3643.9581-1.4189 2.4032-2.6696 4.3376-3.7521 1.9333-1.0822 4.3726-1.8896 7.318-2.4219 0-1.4543.0083-2.8115.0266-4.0714.0175-1.2591.0266-2.2796.0266-3.0604 0-1.1354-.2222-2.0136-.6655-2.6345-.444-.6206-1.0733-.9315-1.8895-.9315-.8511 0-1.5432.258-2.0752.7717-.5323.5148-.9847 1.1536-1.3572 1.9162-.3725.7632-.7279 1.5349-1.0646 2.3149-.3375.7812-.7366 1.4288-1.1974 1.9429-.4615.5148-1.0646.7716-1.8096.7716-.5681 0-1.0471-.2131-1.4371-.6385-.3908-.4258-.5852-.9756-.5852-1.6502 0-1.0993.4961-2.1555 1.49-3.1665.9931-1.0114 2.2437-1.8272 3.7524-2.4485 1.5075-.6203 3.0416-.9311 4.6035-.9311 2.1997 0 3.9027.5235 5.1093 1.5699 1.2057 1.0468 1.8096 2.4748 1.8096 4.2844 0 1.1362-.0091 2.4573-.0266 3.9652-.0183 1.5084-.0358 3.0958-.0533 4.7635-.0183 1.6681-.0358 3.2914-.0533 4.8701-.0182 1.579-.0262 2.9721-.0262 4.1779 0 .8873.1327 1.5619.3987 2.0223.2664.4616.7005.6918 1.304.6918.5673 0 1.1528-.2477 1.7563-.7447l.0081.0109c-.3635-.8347-.5452-1.803-.5452-2.9046V18.647c0-1.1712-.1598-2.0932-.4791-2.7678-.3192-.6735-.8165-1.1883-1.49-1.5437v-.1594c.78 0 1.5699-.1237 2.3682-.3725.7983-.2481 1.5516-.5856 2.262-1.0114.7092-.4258 1.3123-.9048 1.8092-1.4368h.1599ZM10.325 0v.15943C9.40192.5502 8.72807 1.22369 8.30231 2.18179c-.42577.9581-.63847 1.8987-.63847 2.82065L7.46979 14.636H20.8098V5.00244c0-.92195-.2222-1.86255-.6655-2.82065-.444-.9581-1.0912-1.63159-1.9428-2.02236V0h10.3254v.15943c-.8873.39077-1.5528 1.06426-1.996 2.02236-.4441.9581-.6651 1.8987-.6651 2.82065V34.914c0 1.1362.2568 2.1293.7716 2.9808.514.8512 1.1445 1.4726 1.8895 1.863v.1594H18.2015v-.1594c.7096-.3904 1.3215-1.0118 1.8363-1.863.514-.8515.772-1.8446.772-2.9808V15.86H7.46979l.19405 19.054c0 1.1362.25683 2.1293.77164 2.9808.51404.8512 1.14451 1.4726 1.88952 1.863v.1594H0v-.1594c.70923-.3904 1.32144-1.0118 1.83587-1.863.51404-.8515.77201-1.8446.77201-2.9808V5.00244c0-.92195-.2047-1.86255-.61221-2.82065C1.58741 1.22369.92231.5502 0 .15943V0h10.325Zm30.5443 24.1829c-2.2354.4973-3.9385 1.1974-5.1093 2.1022-1.1711.9049-1.9785 1.9159-2.4218 3.0334-.444 1.1179-.6651 2.2446-.6651 3.38 0 1.3489.2743 2.4044.8249 3.1665.5498.7637 1.339 1.1446 2.3682 1.1446.6738 0 1.428-.1865 2.262-.559.8333-.3725 1.7114-1.0019 2.6345-1.8896 0-1.525.0084-3.1931.0267-5.0028.0175-1.8097.0441-3.6011.0799-5.3753Z" fill="#fff"/></svg>