<svg aria-hidden="true" style="position:absolute;width:0;height:0;overflow:hidden" xmlns="http://www.w3.org/2000/svg"><defs><symbol id="icon-logo" viewBox="0 0 67 32"><path fill="#fff" style="fill:var(--color1, #fff)" d="M42.399 9.084V26.1c0 .909.184 1.647.554 2.214.369.568.951.851 1.746.851.567 0 1.256-.213 2.065-.639s1.682-1.121 2.618-2.086V14.917c0-.937-.114-1.675-.341-2.214s-.625-.951-1.192-1.235v-.128c.624 0 1.256-.099 1.895-.298s1.241-.468 1.81-.809c.567-.341 1.05-.724 1.448-1.149h.128v.03c0 .644.006 11.394 0 12.89-.014 3.911 1.334 8.685 7.452 8.986 1.162.057 2.108-.362 2.831-1.086s1.085-1.696 1.085-2.917c0-.879-.241-1.597-.724-2.15s-1.1-1.022-1.852-1.405-1.54-.745-2.363-1.086c-.88-.397-1.718-.852-2.512-1.362s-1.448-1.164-1.958-1.959c-.511-.794-.766-1.816-.766-3.066s.319-2.377.958-3.385c.639-1.007 1.526-1.802 2.661-2.384s2.441-.873 3.917-.873c.709 0 1.412.05 2.108.149s1.369.249 2.022.447l-1.32 5.152h-.128c-.255-1.504-.766-2.668-1.533-3.491s-1.633-1.235-2.597-1.235c-1.079 0-1.916.383-2.512 1.149s-.894 1.633-.894 2.597c0 .851.234 1.554.703 2.108s1.078 1.022 1.831 1.405c.752.383 1.54.76 2.363 1.128.879.369 1.717.802 2.512 1.299s1.454 1.135 1.98 1.916c.525.781.787 1.782.787 3.002 0 1.505-.348 2.775-1.043 3.81-.696 1.037-2.263 3.178-5.647 3.215-2.688.03-4.832-1.388-7.205-1.388-1.813 0-3.038.811-3.775 1.351h-.128v-2.853c0-.397.007-.794.021-1.192s.035-.724.064-.979h-.043c-.596.795-1.277 1.575-2.044 2.342s-1.583 1.405-2.448 1.916c-.866.511-1.71.766-2.533.766-1.192 0-2.107-.419-2.746-1.256-.164-.215-.306-.445-.428-.69-.395.551-.932 1.02-1.612 1.408-.696.397-1.383.596-2.065.596-.823 0-1.519-.277-2.086-.83s-.852-1.412-.852-2.576V28.2h-.043c-.909 1.107-1.902 2.008-2.98 2.704s-2.158 1.043-3.236 1.043c-1.107 0-2.072-.44-2.895-1.32s-1.235-2.029-1.235-3.449c0-1.192.383-2.356 1.15-3.491s1.923-2.136 3.47-3.002c1.547-.866 3.498-1.512 5.854-1.938 0-1.163.007-2.249.021-3.257s.021-1.824.021-2.448c0-.908-.178-1.611-.532-2.108s-.859-.745-1.512-.745c-.681 0-1.235.206-1.66.617s-.788.923-1.086 1.533c-.298.611-.582 1.228-.852 1.852s-.589 1.143-.958 1.554c-.369.412-.852.617-1.448.617-.454 0-.838-.17-1.15-.511s-.468-.78-.468-1.32c0-.879.397-1.724 1.192-2.533s1.795-1.462 3.002-1.959c1.206-.496 2.433-.745 3.683-.745 1.76 0 3.122.419 4.087 1.256s1.448 1.98 1.448 3.428c0 .909-.007 1.966-.021 3.172s-.029 2.477-.043 3.811c-.015 1.334-.029 2.633-.043 3.896s-.021 2.378-.021 3.342c0 .71.106 1.25.319 1.618s.56.553 1.043.553c.454 0 .922-.198 1.405-.596l.006.009c-.291-.668-.436-1.442-.436-2.324V14.913c0-.937-.128-1.675-.383-2.214s-.653-.951-1.192-1.235v-.128c.624 0 1.256-.099 1.895-.298s1.241-.468 1.81-.809c.567-.341 1.05-.724 1.447-1.149h.128zM8.26 0v.128c-.738.313-1.278.851-1.618 1.618s-.511 1.519-.511 2.257l-.155 7.707h10.672V4.003c0-.738-.178-1.49-.532-2.257S15.243.441 14.562.128V0h8.26v.128c-.71.313-1.242.851-1.597 1.618s-.532 1.519-.532 2.257v23.929c0 .909.205 1.703.617 2.385s.916 1.178 1.512 1.49v.128h-8.26v-.128c.568-.312 1.057-.809 1.469-1.49s.618-1.476.618-2.385V12.689H5.977l.155 15.243c0 .909.205 1.703.617 2.385s.916 1.178 1.512 1.49v.128H.001v-.128c.567-.312 1.057-.809 1.469-1.49s.618-1.476.618-2.385V4.003c0-.738-.164-1.49-.49-2.257S.739.441.001.128V0h8.26zm24.435 19.346c-1.788.398-3.151.958-4.087 1.682s-1.583 1.533-1.937 2.427c-.355.894-.532 1.796-.532 2.704 0 1.079.219 1.924.66 2.533.44.611 1.071.916 1.895.916.539 0 1.142-.149 1.81-.447s1.369-.802 2.108-1.512c0-1.22.007-2.554.021-4.002s.035-2.881.064-4.3z"/></symbol><symbol id="icon-close-black" viewBox="0 0 32 32"><path d="m26.667 7.303-1.97-1.97-7.808 7.808-7.808-7.808-1.97 1.97 7.808 7.808-7.808 7.808 1.97 1.97 7.808-7.808 7.808 7.808 1.97-1.97-7.808-7.808 7.808-7.808z"/></symbol></defs></svg>